<svg width="280" height="344" viewBox="0 0 280 344" fill="none" xmlns="http://www.w3.org/2000/svg">
<g opacity="0.45">
<path d="M144.882 48.1107C136.208 48.3345 128.164 53.6371 119.538 59.3273C113.852 63.0857 107.408 67.3432 99.4778 71.2717C96.5375 72.7297 88.5171 74.3683 82.6608 75.559C79.6476 76.1746 76.8337 76.7396 74.3551 77.3309C73.4641 72.2927 70.9333 68.2987 66.7456 65.5447C64.996 64.3864 62.8704 63.9613 60.813 64.3582C32.5359 69.6313 20.7778 85.0645 10.3936 98.6725C3.35472 107.906 -5.40366 127.692 -13.8115 147.715L-15.4093 151.512C-24.376 172.572 -27.8417 191.606 -30.6443 206.899C-33.1067 220.394 -35.0671 231.054 -39.4087 237.591C-42.0088 241.122 -45.0194 261.77 -40.532 270.307C-36.5549 277.881 -20.9019 286.656 -14.3652 290.082C-13.1826 290.698 -11.8959 291 -10.5999 291C-9.62793 291 -8.65985 290.834 -7.73645 290.478C-5.56565 289.652 -3.85592 287.942 -3.03782 285.779L6.01139 261.922L14.0323 245.564C15.0448 243.515 15.1278 241.129 14.2854 238.999C13.3134 236.536 12.2071 233.756 11.1055 230.962C24.0574 234.915 27.0104 234.847 29.1407 231.421C36.3983 228.27 52.4128 226.476 62.5216 226.184C63.9147 226.144 65.2002 225.756 66.3342 225.108C67.5492 225.805 68.9502 226.2 70.4001 226.2C88.2849 226.2 120.234 242.913 131.039 249.361C133.081 250.576 135.551 250.842 137.795 250.073C139.568 249.473 147.05 246.849 152.761 243.318C161.168 246.776 175.014 251.816 179.323 249.646C182.887 247.864 184.619 243.747 183.42 239.948C181.695 234.505 180.875 230.768 180.478 228.257C181.66 229.01 183.14 230.021 184.987 231.373C187.449 233.188 190.806 235.678 195.301 233.572C195.828 233.321 196.343 233.027 196.804 232.67C217.67 218.9 276.718 216.141 296.425 218.053C299.122 218.344 301.819 217.185 303.528 215.047C304.662 213.637 305.275 211.916 305.316 210.158C306.061 210.045 306.832 209.871 307.626 209.636C309.926 208.956 311.804 207.283 312.751 205.08C313.699 202.877 313.623 200.368 312.546 198.23C310.845 194.86 309.312 191.826 306.882 189.987C307.149 189.088 307.459 188.076 307.8 186.918C310.481 177.927 317.538 154.206 319.871 149.962C322.373 146.673 321.999 141.976 318.921 139.125C312.223 132.953 289.606 112.49 279.481 109.161C278.841 108.951 277.694 108.799 277.013 108.75C275.693 108.661 271.59 107.142 268.407 105.554C266.423 104.566 264.121 104.437 262.031 105.19C259.95 105.944 258.271 107.524 257.38 109.557C256.894 110.65 255.389 112.753 254.628 113.069C253.097 113.474 251.733 114.315 250.688 115.474C240.11 110.047 228.393 107.614 219.823 109.525C219.272 109.647 218.743 109.783 218.241 109.937C216.597 107.717 215.375 104.557 216.153 97.5017C216.574 93.6866 214.261 90.0939 210.6 88.9113C208.826 88.3281 206.984 88.3829 205.331 88.9904C202.229 90.0353 197.377 91.1103 195.238 91.1103C195.1 91.1103 195.15 91.1678 194.843 91.0787C181.421 85.8218 179.657 83.4127 177.203 80.0836C176.45 79.0549 175.591 77.8987 174.498 76.6189C174.587 76.4326 174.677 76.2361 174.782 76.0336C176.224 73.2553 175.942 69.8824 174.039 67.3957C162.873 52.7428 153.556 47.887 144.882 48.1107ZM230.929 56.1158C226.599 56.2335 220.772 57.7547 217.893 62.0801C215.763 65.2715 215.642 69.2206 217.497 72.6955C219.781 78.8758 226.334 82.3432 230.359 84.4816L231.198 84.9246C232.793 85.9371 238.46 91.0807 239.424 92.3443C240.145 93.6808 241.236 94.7867 242.557 95.54C243.934 96.3176 245.226 96.6158 246.433 96.6158C248.263 96.6158 249.888 95.9565 251.305 95.3976C254.983 93.9234 264.55 89.9294 272.52 90.3668C275.615 90.464 278.505 88.8879 280.003 86.1744C281.332 83.7525 281.323 80.8359 280.035 78.4383C280.043 78.4221 280.059 78.3611 280.067 78.2801C280.237 75.9959 280.746 69.0511 272.679 65.2441C269.949 63.9562 267.255 64.2507 262.395 64.7853C259.431 65.1093 252.501 65.8614 251.115 65.5131C249.269 64.0389 240.528 57.7772 234.599 56.4164C233.653 56.1977 232.372 56.0766 230.929 56.1158ZM324.522 72.4582C323.159 72.3823 321.748 72.6461 320.44 73.2334C318.723 74.0029 317.382 75.4168 316.564 77.0935C313.713 77.2474 308.202 78.0681 306.202 83.7381C304.768 87.7719 304.826 98.1085 307.847 103.608C308.568 104.921 309.463 105.748 310.394 106.614C312.257 108.364 317.236 113.01 324.696 124.966C325.862 126.829 328.047 128.357 330.201 128.81C330.825 128.948 331.445 129 332.052 129C335.397 129 338.207 127.107 340.532 125.535L341.782 124.823C343.774 123.957 345.77 123.089 347.746 122.15C353.546 119.396 355.207 117.562 357.175 111.471C357.345 111.082 357.619 110.606 357.918 110.063C359.984 106.288 365.321 96.5781 358.947 88.7373C355.755 82.7838 350.299 78.3232 342.272 75.1318C340.425 74.4028 338.632 74.3504 335.643 74.2775C333.886 74.237 329.921 74.1608 328.366 73.7396C327.212 72.962 325.885 72.5341 324.522 72.4582ZM51.7637 242.4C50.4212 242.317 49.0483 242.568 47.7928 243.159C42.1066 245.857 13.7001 260.169 13.7001 278.28C13.7001 279.957 14.2152 281.587 15.1872 282.947C23.0037 294.012 34.343 307.2 43.901 307.2C45.9665 307.2 47.9474 306.41 49.454 305.001L64.1827 291.111C65.9161 289.483 66.8273 287.187 66.7139 284.846C69.5651 286.847 72.6882 289.181 75.6366 291.538C78.7956 294.065 83.3356 293.889 86.2678 291.111L108.369 270.291C110.564 268.234 111.409 265.123 110.599 262.223C109.789 259.323 107.441 257.104 104.509 256.464C101.657 255.841 96.1839 253.966 93.6243 251.56C84.1959 242.666 74.428 242.4 73.3426 242.4C71.2771 242.4 69.2963 243.182 67.7897 244.599L62.7589 249.329H59.2626C58.9305 247.005 57.6092 244.93 55.5923 243.65C54.4259 242.905 53.1063 242.483 51.7637 242.4ZM143.284 250.5C140.49 250.517 137.774 251.989 136.292 254.534C134.323 257.928 135.075 262.25 138.064 264.786L154.153 278.391C155.084 279.144 160.073 282.9 166.999 282.9C168.036 282.868 169.088 282.719 170.052 282.33C171.113 281.901 172.907 281.187 178.658 275.306C178.804 275.16 178.932 275.001 179.07 274.847C185.639 267.031 184.149 261.865 181.743 258.916C177.815 254.089 171.434 255.114 165.812 256.021C164.686 256.199 163.65 256.4 163.455 256.448C161.382 256.205 152.808 253.429 146.069 250.99C145.161 250.66 144.216 250.494 143.284 250.5Z" fill="#9FBFAB"/>
</g>
</svg>
