<svg width="271" height="344" viewBox="0 0 271 344" fill="none" xmlns="http://www.w3.org/2000/svg">
<g opacity="0.45" clip-path="url(#clip0_1_12991)">
<path d="M283.049 13.8426C281.158 13.1753 280.3 14.1451 279.937 15.1741C279.574 16.2031 277.734 15.9935 275.662 15.8407C273.59 15.6878 271.193 19.4566 270.651 20.9937C270.108 22.5307 272.113 24.5347 277.768 26.4435C278.298 26.6232 279.281 26.3173 280.911 25.2221C282.096 24.4254 281.45 25.3547 283.704 24.993C285.958 24.6314 285.034 22.8834 287.286 22.5281C289.538 22.1728 289.542 22.1796 289.724 21.6651C289.905 21.1506 292.799 19.7139 293.181 18.6334C293.469 17.8166 284.939 14.5099 283.049 13.8426ZM241.734 20.9585C232.814 17.8104 228.515 23.3339 225.187 27.6197C222.254 31.4013 220.526 33.5795 219.513 34.8128C212.681 32.4885 207.234 36.8662 203.251 48.03C202.021 51.4942 201.086 54.2026 200.355 56.3166C199.532 58.6878 198.972 60.3169 198.507 61.5124L198.007 62.8475C197.234 64.9759 196.064 68.193 194.405 70.3339C194.378 70.3679 194.351 70.3848 194.331 70.4211C193.762 70.437 193.112 70.4839 192.332 70.563C186.774 71.1256 184.047 73.8418 182.736 76.019C181.907 77.4043 181.159 79.3793 181.263 81.9544C179.11 82.3588 176.847 83.4103 175.471 85.9983C173.157 90.3818 176.094 94.2305 177.218 95.6976C179.421 98.5727 183.101 99.911 186.69 100.397C184.482 103.313 182.975 105.48 182.247 107.544C181.756 108.933 180.621 109.916 178.797 111.355C177.508 112.383 176.388 113.35 175.581 114.303L175.105 114.812C171.997 118.207 168.707 122.206 168.977 126.931C169.112 129.336 170.189 131.525 172 133.097C173.844 134.695 178.837 137.727 185.919 130.918C185.932 130.901 186.183 130.684 186.334 130.542C187.201 131.571 188.277 132.223 189.34 132.634C189.114 132.721 188.891 132.818 188.665 132.904C184.666 134.502 179.19 136.696 177.045 142.774C174.428 150.189 179.115 157.499 184.925 159.991C187.031 160.908 188.863 160.643 191.015 160.346C192.096 160.193 194.953 159.816 195.73 160.075C199.903 162.553 204.667 163.445 208.817 163.818C206.728 165.598 204.627 167.677 203.389 170.632C202.065 173.788 202.41 176.982 202.816 179.541L202.833 180.493C202.874 183.307 202.933 187.543 206.009 190.386C206.323 190.685 206.662 190.946 207.014 191.179C205.801 193.347 205.376 195.506 205.07 197.047C204.756 198.635 204.602 199.29 204.197 199.762C203.197 200.913 201.595 202.845 199.987 205.127C198.331 204.347 196.589 203.831 194.864 203.432C190.369 202.438 185.34 200.074 183.415 198.049C181.674 196.22 178.066 192.386 172.891 192.809C171.156 192.949 167.865 193.744 165.288 197.5C162.457 201.628 163.07 205.439 164.55 208.398C162.171 209.83 159.791 212.072 158.492 215.837C157.263 219.381 159.134 223.24 162.671 224.488C164.208 225.03 166.408 226.049 167.369 226.584C168.005 227.344 168.542 228.303 168.238 229.165L167.706 230.672C166.153 235.136 166.164 235.137 163.17 236.12C161.901 236.54 160.901 236.471 158.79 236.283C157.248 236.144 155.33 235.965 153.097 236.125L151.529 236.207C144.909 236.539 141.31 236.959 138.746 238.405C134.45 240.823 131.113 246.84 135.867 255.809C140.667 264.851 149.364 264.837 152.64 264.836C152.675 264.841 152.709 264.839 152.737 264.842C152.463 267.32 153.336 269.211 154.339 270.549C153.855 270.834 153.358 271.151 152.861 271.496C151.422 272.5 150.432 273.783 149.577 274.956C147.69 274.587 144.907 274.508 141.97 276.538C139.079 278.54 138.203 281.476 137.753 283.284C137.678 283.395 137.226 284.007 135.519 285.01C133.139 286.405 130.244 287.545 127.18 288.749C125.39 289.455 123.62 290.154 122.477 290.705C121.721 290.901 120.351 291.067 118.773 291.276C109.603 292.503 103.398 293.65 100.627 298.305C99.3219 300.506 99.1079 303.152 100.024 305.537C100.896 307.841 102.922 310.65 107.891 311.181C108.094 311.303 108.314 311.521 108.808 311.985C109.453 312.596 110.143 313.231 111.024 313.911C112.431 314.986 113.784 315.704 115.051 316.151C120.318 318.01 124.371 315.178 126.762 313.505L127.385 313.061C131.097 310.494 135.306 309.333 138.347 309.979C139.368 310.897 141.294 313.123 142.492 314.522C145.934 318.499 147.705 320.458 150.188 321.334C158.491 324.265 164.098 316.499 167.109 312.333C167.75 311.438 168.305 310.603 168.799 310.105C170.749 308.29 172.412 307.589 172.234 307.418C173.563 307.996 176.596 311.473 178.052 313.144C180.647 316.121 182.53 318.275 185.095 319.246C189.093 320.664 192.608 321.081 193.959 321.145C197.459 321.332 199.943 319.824 201.494 318.606C201.668 318.87 201.837 319.14 201.999 319.378C203.912 322.36 206.814 326.855 212.608 328.9C218.448 330.961 222.281 328.297 224.122 327.016C224.379 326.839 224.627 326.624 224.64 326.549C227.509 326.513 229.714 327.404 233.349 328.846C234.832 329.442 236.416 330.07 238.191 330.696C245.645 333.327 249.271 333.107 253.955 332.46C254.737 332.353 255.575 332.229 256.526 332.138C260.953 331.726 263.82 330.382 266.364 329.197C267.43 328.698 268.568 328.155 269.951 327.68C270.319 327.558 270.685 327.499 271.042 327.43C272.836 327.08 275.838 326.481 278.415 323.789C279.318 322.849 282.738 318.081 281.666 313.537C281.236 311.743 279.86 309.902 278.209 308.842C279.201 307.796 280.55 306.442 281.718 305.264C288.855 298.076 299.643 287.214 303.023 277.638C305.799 269.773 304.844 262.417 300.27 256.34C297.06 252.097 292.255 248.583 287.063 246.693C285.246 246.001 283.785 245.73 282.363 245.683C282.96 242.864 282.473 240.113 282.148 238.248C282.044 237.662 281.937 237.044 281.851 236.406C281.432 233.249 280.021 230.932 279.003 229.228C278.665 228.668 278.154 227.806 278.113 228.066C278.156 227.495 278.304 226.618 278.472 225.65C278.813 223.616 279.151 221.355 279.179 219.883C279.213 218.231 279.913 217.068 281.137 215.135C282.013 213.759 283.001 212.184 283.565 210.257C285.188 204.697 281.298 200.321 278.733 197.774L278.633 197.456C277.062 193.076 275.566 188.939 270.675 184.703C267.49 181.945 266.554 179.005 266.667 172.087C266.709 169.527 267.224 166.915 267.762 164.139C268.559 160.016 269.465 155.335 268.845 150.184C268.457 146.981 267.195 144.429 266.176 142.377C265.787 141.575 265.375 140.784 265.073 139.94C264.059 137.137 263.079 135.846 261.995 134.573C261.71 134.234 261.368 133.836 260.904 133.101C258.319 128.97 255.606 126.769 252.937 125.458C254.833 124.449 256.388 122.884 257.246 120.453C257.711 119.134 258.091 117.277 257.623 115.261C260.449 114.262 262.923 112.745 265.314 110.559C267.592 108.47 269.371 106.113 270.939 104.027C272.587 101.838 274.139 99.7754 275.889 98.527C276.365 98.1816 277.999 97.6293 279.075 97.2642C282.716 96.0468 288.208 94.1991 290.158 88.6746C291.223 85.6584 293.482 75.3832 277.816 69.8541L260.934 63.896C258.58 63.0653 256.428 62.6465 254.479 62.4937C255.657 60.2409 255.818 57.8142 254.972 55.2519C255.743 54.9742 256.514 54.7057 257.215 54.4613C271.497 49.3839 275.684 47.7161 277.201 43.42C278.642 39.3362 277.794 33.6851 270.675 31.1724C269.324 30.6958 268.197 30.7212 266.503 30.7454C264.065 30.789 259.539 30.8586 255.874 29.5648C255.115 29.297 253.647 28.1771 252.347 27.1901C249.674 25.1329 246.345 22.586 241.734 20.9585ZM218.578 20.1313C217.987 19.1201 204.902 18.4972 204.148 20.6324C203.397 22.7611 201.973 21.4588 199.78 22.2831C197.587 23.1075 197.921 24.8292 196.918 27.6718C195.914 30.5144 194.569 31.6455 194.569 31.6455C194.067 33.0668 195.754 33.6601 198.288 34.5544C200.822 35.4487 206.54 32.6778 209.827 31.437C213.115 30.1961 214.971 27.6422 216.915 27.5252C218.849 27.4125 219.168 21.1425 218.578 20.1313ZM190.156 38.987C189.646 38.5361 188.458 39.6388 187.066 40.0156C185.211 40.518 184.854 41.5606 184.126 43.6251C183.397 45.6895 181.198 51.8963 179.356 54.7393C177.516 57.5759 178.66 61.472 178.66 61.472C179.041 62.7707 178.695 63.815 179.499 64.0987C180.303 64.3824 182.06 58.9626 183.082 56.0685C184.178 52.9622 187.13 49.3449 188.607 47.5374C190.084 45.7298 190.435 42.3748 190.419 40.0407C190.416 39.4571 190.325 39.1374 190.156 38.987ZM149.429 118.562C138.457 114.69 131.198 120.966 124.124 128.306C124.029 128.41 123.939 128.492 123.858 128.579C123.327 128.609 122.689 128.659 121.904 128.751C114.521 128.402 112.925 134.379 112.61 136.235L112.606 136.247C110.469 136.585 107.885 137.478 106.042 140.075C103.264 143.991 104.614 148.678 105.06 150.224C106.184 154.128 111.111 162.615 117.397 164.537C120.924 165.608 123.727 164.784 125.693 163.764C125.732 164.247 125.787 164.705 125.841 165.144L125.905 166.084C126.025 167.978 126.21 171.145 128.492 174.004C131.45 177.753 134.953 178.094 137.248 178.21C137.272 178.226 137.291 178.246 137.315 178.262C138.159 178.986 139.508 180.166 141.457 180.854C142.222 181.124 143.068 181.308 144.014 181.375C148.355 181.656 151.017 179.196 152.524 177.753C153.447 177.247 154.591 176.891 155.765 176.496C159.894 175.082 166.117 172.961 168.641 166.547C170.054 162.953 169.708 158.555 167.713 155.089C167.229 154.245 166.657 153.552 166.048 152.961C166.752 151.828 167.329 150.418 167.542 148.728C168.066 144.538 165.2 141.883 162.163 139.075C161.819 138.758 161.486 138.459 161.193 138.182C157.997 126.09 154.561 120.374 149.429 118.562Z" fill="#9FBFAB"/>
</g>
<defs>
<clipPath id="clip0_1_12991">
<rect width="341" height="341" fill="white" transform="translate(113.488 -46) rotate(19.4393)"/>
</clipPath>
</defs>
</svg>
