<svg width="25" height="26" viewBox="0 0 25 26" fill="none" xmlns="http://www.w3.org/2000/svg">
<circle cx="12.7469" cy="13.171" r="12.2184" fill="#F690A3"/>
<path d="M19.6542 12.0203L13.6241 7.06618C13.3776 6.86093 13.0669 6.74854 12.7461 6.74854C12.4253 6.74854 12.1147 6.86093 11.8682 7.06618L5.83806 12.0203C5.79862 12.0534 5.76607 12.0938 5.74226 12.1394C5.71845 12.185 5.70386 12.2348 5.69932 12.286C5.69477 12.3373 5.70036 12.3889 5.71577 12.438C5.73117 12.487 5.75609 12.5326 5.78911 12.572L6.03974 12.8731C6.1064 12.9527 6.20193 13.0025 6.30533 13.0117C6.40873 13.0209 6.51155 12.9886 6.59118 12.922L7.26353 12.3699V16.93C7.26411 17.1375 7.34682 17.3364 7.49358 17.4831C7.64034 17.6299 7.83922 17.7126 8.04676 17.7132H11.1797C11.3872 17.7126 11.5861 17.6299 11.7329 17.4831C11.8796 17.3364 11.9623 17.1375 11.9629 16.93V14.3845H13.5294V16.93C13.5299 17.1375 13.6126 17.3364 13.7594 17.4831C13.9062 17.6299 14.105 17.7126 14.3126 17.7132H17.4455C17.6521 17.7127 17.8501 17.6309 17.9968 17.4854C18.1434 17.3398 18.2267 17.1424 18.2287 16.9358V12.3694L18.9025 12.923C18.9822 12.9896 19.085 13.0219 19.1884 13.0127C19.2918 13.0035 19.3873 12.9536 19.454 12.8741L19.7044 12.5733C19.7375 12.5337 19.7625 12.488 19.7779 12.4388C19.7933 12.3895 19.7989 12.3377 19.7942 12.2864C19.7895 12.235 19.7748 12.185 19.7507 12.1394C19.7267 12.0937 19.6939 12.0533 19.6542 12.0203ZM17.0502 16.5383H14.7042V13.9929C14.7036 13.7853 14.6209 13.5864 14.4742 13.4397C14.3274 13.2929 14.1285 13.2102 13.921 13.2096H11.5713C11.3637 13.2102 11.1649 13.2929 11.0181 13.4397C10.8713 13.5864 10.7886 13.7853 10.7881 13.9929V16.5383H8.43838V11.405L12.7461 7.86532L17.0539 11.4035L17.0502 16.5383Z" fill="white"/>
</svg>
