<svg width="280" height="342" viewBox="0 0 280 342" fill="none" xmlns="http://www.w3.org/2000/svg">
<g opacity="0.4">
<path d="M182.48 320.639L180.161 318.328C176.628 314.773 177.411 310.422 177.935 308.319C177.253 308.103 176.535 307.759 175.759 307.292C173.361 305.82 171.344 304.176 169.383 302.575L167.574 301.117C165.6 299.559 164.25 297.527 163.065 295.732C162.771 295.287 162.397 294.727 162.06 294.253C159.303 294.382 153.832 294.497 151.376 289.572C147.276 281.372 160.215 270.329 161.701 269.094C162.835 268.154 164.444 267.048 166.246 265.835C168.493 264.327 173.555 260.909 174.654 258.899C174.496 258.719 174.316 258.547 174.158 258.367C172.887 256.967 170.97 254.856 170.137 251.568C169.599 249.385 169.678 247.439 169.728 246.018C169.742 245.759 169.764 245.494 169.778 245.235C169.721 245.206 169.664 245.171 169.62 245.135C168.709 244.567 167.811 243.971 167.014 243.282C164.185 240.841 162.828 238.263 161.744 236.196C161.399 235.542 161.048 234.86 160.61 234.164C159.935 233.108 159.367 232.814 156.747 231.809C155.131 231.191 153.451 230.523 151.714 229.561C140.577 223.386 142.746 211.288 143.464 207.31C143.715 205.889 144.045 204.453 144.383 202.995C145.273 199.147 146.041 195.83 145.101 193.338C144.498 192.606 141.058 191.672 139.213 191.163C136.054 190.294 132.464 189.317 129.463 187.221C122.843 182.604 123.611 175.438 124.013 171.59C124.164 170.104 124.351 168.431 124.099 167.684C123.302 165.286 121.852 163.979 115.347 162.601C112.963 162.098 110.852 161.94 108.985 161.789C100.412 161.1 93.0457 159.384 89.7573 145.261C89.3121 143.387 89.0752 141.664 88.8957 140.12C87.8689 140.407 86.5119 140.824 84.7241 141.441C82.8645 142.087 80.689 143.2 78.3914 144.378C73.509 146.883 67.9804 149.727 61.784 149.992C59.4936 150.1 53.448 150.344 49.1113 145.512C47.4743 143.696 46.6414 141.757 46.2178 139.94C39.0809 141.025 31.5921 137.801 26.7743 131.482C18.6681 120.856 21.296 102.741 25.6255 93.8377C29.9551 84.9488 37.8172 83.0461 43.5612 81.646C46.2752 80.9926 48.8313 80.368 50.813 79.1689C52.4572 78.1781 55.8677 76.1102 52.2059 66.2736C51.8182 65.2397 51.2151 64.2991 50.6407 63.3298C49.5421 61.4917 48.1779 59.2013 47.4312 56.4155C46.3542 52.3875 46.2752 47.34 50.9566 44.3172C50.016 40.9282 50.935 38.3004 51.6602 36.9074C54.3312 31.8096 60.4916 30.8116 62.8251 30.4454C68.9138 29.4546 74.349 30.1654 78.9586 32.542C81.0695 33.6262 82.7999 34.9688 84.3292 36.1535C85.9734 37.4316 87.4023 38.5301 88.5223 38.7096C90.2886 38.9681 93.1247 38.0491 95.1926 36.5484C95.9824 35.974 96.2408 35.6222 96.2911 35.536C96.3126 35.5576 96.2265 34.8683 94.6253 32.2476L94.0007 31.2927C92.1123 28.4996 87.1151 21.0971 92.6724 14.7356C97.0953 9.68805 103.076 9.94653 110.407 15.4536C110.974 15.8772 111.491 16.308 111.972 16.5665C113.028 16.9542 114.722 15.7767 118.714 12.201C121.924 9.33623 125.564 6.08369 130.353 4.79129L132.485 4.21689L134.568 4.93489C140.103 6.84477 140.355 12.2872 140.735 20.5227C140.915 24.3999 141.288 32.463 142.43 34.4878C142.444 34.4878 144.541 35.9525 152.697 33.7841C154.715 33.2456 156.567 32.1758 158.707 30.9337C160.38 29.9644 162.081 28.9879 163.941 28.1407C169.836 25.4625 174.553 26.3887 178.337 27.1354C179.421 27.3508 180.563 27.5878 181.805 27.7027C182.853 27.796 183.248 27.6668 183.248 27.6668C183.535 27.4011 184.296 25.9149 184.799 24.9384C186.091 22.3967 187.865 18.9215 191.34 16.1572C196.122 12.3734 200.494 13.077 202.677 13.8309C210.288 16.4803 213.138 26.1733 215.407 35.8735L215.809 37.5321C216.592 40.5979 216.434 43.5202 215.766 46.2414C217.217 46.4281 218.681 46.9522 220.139 47.9216C221.955 49.1278 223.427 50.9443 224.799 52.8614C231.67 50.0037 239.36 52.2942 244.472 53.8092L245.456 54.1035C253.684 56.5232 256.29 61.0322 258.638 65.9218C259.385 65.8141 260.239 65.7064 261.194 65.6059C266.112 65.0961 271.117 65.9936 275.547 66.7978C278.34 67.3004 280.968 67.7814 283.093 67.8245C300.67 68.2194 305.918 79.3197 309.049 85.9468C310.162 88.3091 311.224 90.5349 312.316 91.4395C314.642 93.3566 317.88 93.9238 321.312 94.5269C325.85 95.3239 331.501 96.3148 334.933 101.298C338.236 106.087 337.597 111.917 336.843 115.873C335.148 124.69 329.871 132.136 326.058 136.968C323.179 140.615 320.774 143.265 318.29 145.993C316.444 148.011 314.556 150.086 312.373 152.728C309.954 155.643 306.845 157.51 304.109 159.161C302.027 160.411 299.679 161.832 299.076 163.01C297.934 165.257 298.631 169.386 299.306 173.378C300.002 177.47 300.713 181.706 300.103 186.058C299.076 193.309 295.78 199.578 292.879 205.106C291.989 206.793 291.099 208.481 290.288 210.19C289.354 212.143 288.536 214.225 287.696 216.328C285.455 221.965 282.914 228.348 278.182 233.424C272.747 239.247 266.988 238.945 263.19 238.737C261.984 238.673 260.677 238.586 259.162 238.744C253.031 239.434 244.343 241.2 238.728 243.598C234.757 245.293 229.81 250.161 226.414 255.718C226.292 256.106 226.63 257.018 226.881 257.685C228.92 263.149 230.557 269.848 224.03 280.288C223.341 281.394 222.415 282.334 220.742 284.029C219.012 285.788 216.635 288.193 214.632 290.763C191.749 320.079 187.19 320.352 185.696 320.438L182.48 320.639Z" fill="#9FBFAB"/>
</g>
</svg>
