<svg width="114" height="34" viewBox="0 0 114 34" fill="none" xmlns="http://www.w3.org/2000/svg">
<g clip-path="url(#clip0_1_12168)">
<path d="M46.3007 33.5015C44.9322 33.5015 43.865 33.1174 43.0994 32.312C42.2297 31.4586 41.7655 30.1465 41.7468 28.4743C41.7487 27.5347 41.8597 26.5986 42.0776 25.6847L46.4021 4.52243L52.6288 3.60767C52.6288 3.60767 48.0935 25.322 47.9841 25.8687C47.6266 27.6769 47.8667 28.6103 48.2376 29.0263C50.2998 31.3306 55.1098 27.5302 55.0992 25.5726C55.2806 27.1435 52.458 33.5308 46.3007 33.5015Z" fill="#1D1E46"/>
<path d="M16.7521 33.4749C13.8175 32.5095 13.404 29.4318 13.9803 26.8209C14.119 25.9435 14.3804 24.866 14.6606 23.5299C14.9567 22.1404 15.1941 21.0603 15.3382 20.2922C15.4732 19.5991 15.5526 18.8964 15.5756 18.1907C15.5623 16.7505 15.0421 15.9878 14.031 15.9958C13.324 15.9958 11.4992 16.5878 10.7469 19.9962C10.7469 19.9962 10.3601 22.3511 9.10085 27.7303C7.43881 36.3899 3.4371 33.5389 0.00363159 32.2455C1.00406 32.1761 2.20191 30.8133 2.82617 28.5331C4.96042 20.7376 7.89501 4.59722 7.89501 4.59722L14.3404 3.48511L11.9021 14.4756C12.6133 13.6214 13.5139 12.9447 14.5325 12.4994C15.2679 12.2212 16.046 12.0723 16.8322 12.0593C18.2648 12.046 19.3933 12.4034 20.2683 13.1608C21.146 13.9742 21.6022 15.2117 21.6262 16.8545C21.5867 18.151 21.4124 19.4399 21.106 20.7003C20.9993 21.1563 20.8605 21.8337 20.6685 22.7645C20.2656 24.3033 19.3132 27.981 20.6898 29.5172C22.4506 31.4854 25.2971 29.4692 26.1722 26.1995C24.5581 33.3682 19.1265 34.2537 16.7521 33.4749Z" fill="#1D1E46"/>
<path d="M60.6349 33.368C56.0783 33.2427 53.9867 30.021 53.9867 26.738C53.9994 25.7703 54.076 24.8045 54.2161 23.847C54.3631 22.7604 54.6077 21.6893 54.9471 20.6467C55.7875 18.057 56.9346 16.0195 58.4419 14.486C59.3089 13.5805 60.3516 12.8613 61.5062 12.3725C62.6608 11.8836 63.903 11.6354 65.1568 11.643C66.8295 11.627 68.0914 12.0218 68.9184 12.8245C69.5756 13.5389 69.9287 14.4812 69.9028 15.4514C69.9028 16.4649 69.7161 17.225 69.2652 17.7877C69.081 18.0281 68.844 18.2228 68.5725 18.357C68.3009 18.4911 68.0021 18.5609 67.6992 18.5611C67.1693 18.5516 66.6552 18.3793 66.2266 18.0677C66.5427 17.276 66.7074 16.4319 66.7121 15.5795C66.7351 15.1362 66.6255 14.6961 66.3973 14.3153C66.3073 14.1688 66.179 14.0496 66.0262 13.9707C65.8734 13.8917 65.7019 13.8559 65.5303 13.8673C64.73 13.8673 63.8656 14.5927 62.9665 16.0675C62.0089 17.6096 61.2522 19.2676 60.7149 21.0014C60.0453 23.0923 59.2183 26.8233 60.9017 28.8235C63.276 31.6451 67.6752 29.6689 69.0438 27.362C68.825 28.2155 66.6988 33.5333 60.6349 33.368Z" fill="#1D1E46"/>
<path d="M79.7097 31.8828C78.8507 32.2455 75.9214 33.235 74.9583 33.243C73.5907 33.2536 72.5235 32.8571 71.757 32.0535C70.8873 31.2001 70.4231 29.8879 70.4071 28.2158C70.4028 27.2765 70.5103 26.34 70.7272 25.4261L73.5017 12.5954L79.5763 11.822L76.4817 26.1862C75.4145 31.0347 79.7097 31.8828 79.7097 31.8828Z" fill="#1D1E46"/>
<path d="M108.343 33.795C106.623 33.795 105.299 33.3149 104.48 32.3602C103.716 31.439 103.31 30.2735 103.336 29.0772C103.339 28.325 103.408 27.5745 103.541 26.8342C103.685 25.9728 103.925 24.3673 104.219 23.0472C104.51 21.6764 104.752 20.6096 104.899 19.8468C105.037 19.1615 105.116 18.4655 105.134 17.7666C105.134 16.3478 104.6 15.5931 103.595 15.6037C102.885 15.6037 102.231 15.9691 101.628 16.7345C101.028 17.5791 100.589 18.5277 100.335 19.5321L97.5653 33.0829L91.4854 33.1362L94.4493 18.5187C94.5335 18.1698 94.5641 17.8101 94.5401 17.4519C94.5503 16.9993 94.4591 16.55 94.2733 16.1371C94.1654 15.9653 94.0148 15.8244 93.8362 15.7281C93.6576 15.6318 93.457 15.5834 93.2542 15.5877C92.4538 15.5877 91.7895 16.0064 91.1866 16.7719C90.5865 17.6163 90.1486 18.565 89.8954 19.5695L87.1235 33.1202L79.3042 33.1789C79.8018 33.1901 80.2867 33.0215 80.6699 32.704C81.0532 32.3866 81.309 31.9416 81.3904 31.4507L85.1921 12.6301L91.4 11.958L90.9625 14.1396C91.691 13.2819 92.6027 12.5984 93.6303 12.1394C94.4014 11.8264 95.2258 11.6652 96.058 11.6646C97.2239 11.6646 98.1923 11.8993 98.9019 12.4487C99.6676 13.0515 100.182 14.0089 100.447 15.2224C101.201 13.9602 102.276 12.9196 103.563 12.206C104.415 11.7942 105.348 11.5782 106.294 11.574C107.714 11.574 108.831 11.9073 109.648 12.6594C110.518 13.4595 110.982 14.673 110.998 16.2945C110.971 17.576 110.812 18.8514 110.523 20.1002C110.379 20.7589 109.456 25.2074 109.21 26.3249C108.231 30.8587 109.96 31.8188 111.059 31.8561C112.468 31.9014 113.994 30.5226 113.994 30.5226C112.345 32.7202 110.312 33.795 108.343 33.795Z" fill="#1D1E46"/>
<path d="M35.3067 30.44C33.2819 30.456 30.3206 29.3172 31.1129 24.8608C32.3654 24.7857 33.5964 24.5008 34.7545 24.018C35.8934 23.5367 36.9488 22.8778 37.8812 22.0658C38.7853 21.2864 39.5222 20.332 40.0474 19.2602C40.5468 18.1971 40.7968 17.0341 40.7784 15.8598C40.7784 14.6437 40.4556 13.7262 39.842 13.0808C39.0737 12.2808 37.8038 11.8834 36.0804 11.8994C33.3966 11.9234 31.1236 12.8542 29.3148 14.745C28.5151 15.5938 27.8192 16.5348 27.2419 17.548C26.6577 18.6197 26.1754 19.7438 25.8013 20.9057C25.4608 21.9482 25.2152 23.0193 25.0677 24.106C24.9296 25.0629 24.8539 26.0277 24.8409 26.9943C24.8409 31.8722 29.3042 33.515 31.4864 33.6243C38.6735 33.987 42.0616 28.1064 42.9713 25.7222C42.982 25.7195 39.9514 30.4773 35.3067 30.44ZM32.044 19.6335C32.3498 18.6658 32.7482 17.7298 33.2338 16.8386C33.6127 16.089 34.1029 15.4012 34.6878 14.7984C35.24 14.2863 35.7549 14.0303 36.2511 14.0249C36.4165 14.0057 36.5838 14.0386 36.7296 14.1189C36.8755 14.1992 36.9927 14.323 37.0648 14.473C37.2582 14.8654 37.3499 15.3001 37.3316 15.7371C37.348 16.6077 37.1835 17.4722 36.8487 18.2761C36.5085 19.0836 36.0538 19.8381 35.4988 20.5163C34.9534 21.1664 34.2876 21.7052 33.538 22.1031C32.8303 22.4738 32.0575 22.7038 31.2623 22.7805C31.4694 21.719 31.7303 20.6686 32.044 19.6335Z" fill="#1D1E46"/>
<path d="M78.2771 7.86431C80.3929 7.86431 82.108 6.14968 82.108 4.03457C82.108 1.91947 80.3929 0.204834 78.2771 0.204834C76.1613 0.204834 74.4461 1.91947 74.4461 4.03457C74.4461 6.14968 76.1613 7.86431 78.2771 7.86431Z" fill="#815AF0"/>
</g>
<defs>
<clipPath id="clip0_1_12168">
<rect width="114" height="33.5902" fill="white" transform="translate(0 0.204834)"/>
</clipPath>
</defs>
</svg>
