<svg width="240" height="324" viewBox="0 0 240 324" fill="none" xmlns="http://www.w3.org/2000/svg">
<g opacity="0.45" clip-path="url(#clip0_1_12986)">
<path d="M179.84 -5.20509C179.174 -5.14775 178.441 -5.00329 177.625 -4.75392C172.928 -3.31892 152.922 8.48002 161.273 14.332C165.347 17.188 171.858 11.498 173.223 18.666C174.959 27.759 163.577 17.0187 164.732 23.1367C165.439 26.8817 173.179 24.7964 170.981 30.1094C170.302 31.7544 167.264 31.7485 166.879 33.8555C166.312 36.9635 171.433 38.493 171.391 40.418C171.391 40.551 165.452 40.4328 164.773 42.7148C163.927 45.5568 167.054 47.5312 169.231 47.9512C172.409 48.5532 185.326 47.2497 179.908 41.5937C178.942 40.5857 176.229 41.256 176.299 39.625C176.334 38.778 177.721 38.6738 178.008 38.1348C179.212 35.8318 181.228 34.3863 181.809 31.5723C182.376 28.8213 181.484 27.8583 180.742 25.6113C179.734 22.5593 180.308 22.1854 181.631 18.7344C183.632 13.5106 189.83 -6.06524 179.84 -5.20509ZM154.506 16.6289C153.531 16.7433 152.572 17.2324 151.69 18.2422C149.989 20.1882 150.105 23.3113 151.225 25.4883C151.673 26.3633 155.037 26.8127 153.959 28.3457C151.635 31.6497 158.04 32.8164 160.084 31.9414C163.941 30.2964 163.271 25.0473 161.766 21.9883C160.464 19.337 157.432 16.2857 154.506 16.6289ZM145.045 27.9902C142.987 27.6052 140.015 29.3986 140.246 31.7226C140.512 34.4316 143.981 34.729 145.619 36.248C148.083 38.537 150.666 29.0472 145.045 27.9902ZM132.426 29.5762C130.929 29.332 128.508 30.2516 128.256 31.0391C127.479 33.4471 134.458 32.3251 133.492 30.2461C133.312 29.8576 132.925 29.6575 132.426 29.5762ZM151.922 31.6133C151.144 31.9754 150.969 34.2607 151.279 35.8926C152.175 40.6386 155.589 36.578 153.986 33.582C153.068 31.8705 152.389 31.396 151.922 31.6133ZM118.07 34.0742C112.498 32.6112 109.108 44.0651 112.629 45.0801C115.352 45.8711 125.581 36.0552 118.07 34.0742ZM129.35 34.2793C129.007 34.2806 128.637 34.3753 128.256 34.5801C123.657 37.0511 129.182 38.9093 130.484 38.8183C132.996 38.6407 131.745 34.27 129.35 34.2793ZM154.588 39.2012C153.935 39.2311 153.351 39.4428 153.029 39.9258C152.469 40.7588 156.553 42.4602 157.309 41.9492C159.141 40.7102 156.547 39.1113 154.588 39.2012ZM152.701 43.9726C152.156 44.1064 151.714 44.4786 151.457 45.2031C150.421 48.1361 155.38 48.5606 156.885 49.9746C159.062 52.0256 159.233 55.7147 160.836 58.1367C163.195 61.6927 164.695 59.6701 168.041 61.0351C172.01 62.6521 177.834 63.3823 180.305 58.9023C182.328 55.2343 180.289 51.3905 176.012 51.3555C172.715 51.3275 170.319 54.6987 166.77 53.8027C162.99 52.8507 161.062 48.4752 158.115 46.2422C156.903 45.3234 154.337 43.5713 152.701 43.9726ZM118.85 44.6562C118.153 44.6297 117.514 45.2105 116.977 46.7891C116.032 49.5681 119.673 52.3051 120.723 54.6641C121.913 57.3521 121.309 60.0479 125.18 60.4609C130.507 61.0279 136.518 52.9255 134.586 48.0605C131.492 40.2835 128.816 51.1078 125.631 50.5898C123.562 50.2591 120.939 44.736 118.85 44.6562ZM146.945 46.8574C146.489 46.8358 146.006 46.9833 145.523 47.3359C139.601 51.6689 148.903 65.0685 151.731 57.4805C152.539 55.3122 150.142 47.0085 146.945 46.8574ZM104.645 52.1074C97.9712 52.6383 90.5777 61.3051 92.0118 68.418C93.6988 76.818 116.387 66.0941 112.397 57.3301C110.561 53.3007 107.678 51.8661 104.645 52.1074ZM155.586 55.7031C153.189 55.4788 151.358 60.9433 155.094 61.0351C157.467 61.0911 158.319 57.6096 156.639 56.1816C156.288 55.885 155.928 55.7352 155.586 55.7031ZM49.4376 57.9726C46.0815 57.8122 42.9325 59.6245 40.045 63.373C39.842 63.639 39.6464 63.908 39.4434 64.125C33.7454 70.334 28.2893 76.7239 23.2423 83.1289C21.4993 85.3199 19.8363 87.5744 18.1563 89.8144C15.6433 93.1674 13.1204 96.5142 10.4044 99.6992C9.62737 100.616 8.62998 101.503 7.62898 102.406C5.80898 104.058 3.74157 105.915 2.18757 108.176C-1.12343 112.985 0.0990567 117.141 0.834057 119.619C0.967057 120.088 1.13188 120.597 1.25788 121.178C2.86088 128.514 5.79301 130.732 9.46101 132.881C10.266 133.357 11.2318 133.911 12.3868 134.863C13.1428 135.493 13.3794 135.684 12.1544 140.318C11.6714 142.173 11.1892 144.054 10.9512 145.937C10.5032 149.423 10.7746 152.679 11.0196 155.549C11.2926 158.832 11.5391 161.671 10.6641 164.107C10.2021 165.402 9.74396 166.431 9.33796 167.348C8.20396 169.938 7.03507 172.633 7.00007 176.945C7.00007 177.078 6.90754 190.546 8.23054 202.047L8.38093 203.51C9.10193 210.02 9.78913 216.165 15.0391 222.486C26.3791 236.157 40.3329 241.352 53.7169 244.908C68.1649 248.751 85.2789 252.993 102.758 255.422C106.321 255.919 109.886 256.522 113.463 257.131C123.039 258.755 132.94 260.468 143.09 260.111C144.259 260.076 145.56 259.958 146.904 259.811C148.493 259.643 150.888 259.402 151.826 259.633C153.296 260.011 155.01 260.949 156.83 261.957C160.435 263.945 164.995 266.241 170.693 266.318C175.803 266.22 179.564 263.776 182.315 261.998C183.932 260.941 185.338 260.032 186.43 259.906C189.776 259.528 193.85 262.599 197.791 265.553C198.96 266.428 200.103 267.291 201.223 268.068C203.82 269.874 206.615 271.717 209.863 272.977C209.072 274.377 208.428 275.622 208.113 276.49C205.677 283.28 206.914 290.595 211.422 296.055C215.118 300.528 220.495 303 226.242 303C227.285 303 228.337 302.915 229.387 302.74C239.033 301.228 241.21 292.412 242.512 287.141C244.08 280.778 244.657 280.725 246.176 280.578C246.96 280.508 247.472 280.509 247.857 280.523C252.547 280.649 254.357 278.876 257.318 275.656C259.474 273.304 261.099 271.814 263.416 270.652C264.291 270.218 265.226 269.901 266.164 269.572C267.991 268.935 270.054 268.207 272.098 266.947C275.619 264.791 277.198 262.166 278.346 260.248C278.661 259.73 278.978 259.161 279.398 258.566C280.497 257.005 281.34 256.124 281.9 255.627C282.474 256.278 283.147 257.076 283.623 257.65C285.394 259.764 286.918 261.594 288.668 262.805C292.413 265.402 295.948 266.966 299.469 267.617C308.604 269.311 314.623 267.089 319.621 260.18C319.761 259.991 332.649 238.452 327.756 230.115C326.104 227.294 322.972 225.785 319.703 226.191C313.382 226.961 307.464 226.015 304.951 223.894C304.615 223.607 304.095 222.859 303.598 222.131C302.597 220.661 301.369 218.827 299.332 217.182C298.695 216.664 298.068 216.201 297.473 215.76C297.186 215.55 296.911 215.347 296.652 215.158C296.743 214.871 296.887 214.513 297.09 214.051C298.686 210.46 301.384 208.608 305.129 206.053C308.965 203.428 313.325 200.456 316.818 195.115C321.473 187.982 322.168 178.319 318.514 171.627C315.735 166.531 310.531 163.67 304.924 163.684C301.326 163.698 300.49 162.994 299.811 162.357C295.373 158.29 290.203 158.992 287.424 159.377C286.717 159.475 285.668 159.603 285.332 159.568C283.47 159.085 281.438 157.075 279.303 154.947C278.057 153.715 276.824 152.499 275.816 151.68C275.242 151.057 273.499 148.506 272.344 146.812C266.695 138.552 263.891 134.398 258.508 134.986C251.361 135.777 250.441 143.465 249.881 148.057C249.734 149.289 249.648 150.499 249.389 151.311C248.878 152.739 247.922 154.207 244.877 154.564C244.674 153.906 244.506 152.921 244.604 151.857C244.954 148.147 243.734 144.6 241.158 141.863C234.592 134.877 221.321 135.115 219.816 135.164C216.015 135.283 207.142 135.573 203.369 143.49C200.086 150.378 204.603 157.916 208.236 163.971C209.181 165.553 210.479 167.697 210.752 168.523C211.186 169.86 211.118 171.146 210.971 173.281C210.747 176.501 210.455 180.913 213.227 185.764C215.642 189.985 215.691 192.326 213.486 196.701C212.093 199.473 211.246 201.872 210.861 204.084C209.209 201.466 207.012 199.141 203.848 197.713C199.935 195.942 195.979 195.621 192.486 195.334C190.981 195.208 189.485 195.108 188.043 194.828C182.338 193.715 177.01 191.365 172.635 188.047C166.468 183.371 160.219 174.954 162.9 166.596C164.594 161.29 168.948 154.348 173.715 149.301C174.233 148.755 174.802 148.26 175.369 147.77C177.595 145.831 180.95 142.897 181.986 137.857C182.364 136.037 182.45 134.281 182.506 132.566C182.604 129.668 182.723 129.559 183.381 128.971C183.878 128.53 185.036 128.025 186.156 127.535C189.635 126.016 196.87 122.865 196.506 113.303C196.31 108.158 190.497 97.0698 184.666 94.3398C182.35 93.2602 180.314 92.95 178.5 93.0683C182.76 92.6464 186.576 89.3022 191.502 88.9258C195.107 88.6528 196.116 90.9296 198.475 92.9316C201.632 95.6126 205.508 95.7359 208.756 98.0039C211.759 100.097 211.71 102.342 212.27 105.66C212.697 108.208 215.019 112.667 214.676 114.998C213.983 119.751 204.299 117.562 204.873 123.064C205.559 129.672 221.572 128.485 226.311 129.941C231.638 131.572 239.674 136.287 244.959 132.143C250.93 127.467 241.732 128.521 239.107 127.604C237.413 127.016 234.534 125.766 235.703 123.365C236.48 121.762 239.506 122.364 240.871 121.916C246.842 119.963 245.698 114.394 241.568 110.691C239.937 109.228 237.651 107.742 235.348 107.861C233.934 107.931 229.769 110.667 229.51 107.643C229.335 105.564 233.358 103.891 234.828 103.842C238.286 103.723 241.884 107.746 243.893 102.16C247.162 93.0881 234.627 92.5835 229.482 92.5625C227.032 92.5485 223.19 93.0142 221.566 90.9492C221.013 90.2422 221.361 87.2721 221.074 86.3691C220.388 84.1991 219.692 83.4351 217.998 82.0351C215.142 79.6761 211.07 81.3649 208.578 79.6289C205.785 77.6759 209.072 79.2489 207.553 77.0859C208.043 76.0499 207.769 75.3124 206.719 74.8574C205.655 74.6124 204.97 74.9324 204.641 75.8144C203.598 75.9264 203.569 77.0778 201.756 76.8398C199.138 76.4968 199.882 75.0642 198.447 73.5312C196.438 71.3892 192.662 68.3257 189.834 71.3847C187.356 74.0657 187.422 77.7152 184.461 74.2012C182.627 72.0172 182.886 68.1604 180.674 66.0254C179.092 64.5064 178.393 63.7073 176.258 64.9043C172.191 67.1933 175.263 73.6061 176.313 76.5391C176.796 77.8831 179.444 83.4412 176.203 82.9512C172.913 82.4612 173.438 74.3435 173.606 72.3555C173.872 69.1915 174.788 65.9056 170.693 68.3906C167.347 70.4206 165.789 76.7212 165.936 80.3262C166.076 83.9452 168.834 88.6332 171.76 90.9082C173.99 92.6449 175.98 93.159 177.871 93.1094C172.297 93.8248 169.135 99.0344 167.877 101.121C167.562 101.632 167.159 102.306 166.865 102.803C166.571 102.271 166.276 101.659 166.031 101.176C165.261 99.6218 164.453 98.1024 163.543 96.8144C156.746 87.2244 152.153 86.9829 149.283 87.6269C146.77 88.2079 143.831 90.3115 143.131 94.4765C142.865 96.0865 142.748 99.2525 143.637 111.02C143.203 111.146 142.777 111.25 142.406 111.32C142 111.019 141.478 110.589 141.121 110.295C140.323 109.623 139.572 108.994 138.865 108.518C131.599 103.639 126.856 104.896 121.844 106.891C120.85 107.29 119.729 107.743 118.357 108.135C114.143 109.318 111.219 105.056 110.414 103.719C109.784 102.669 109.217 101.644 108.664 100.629C106.452 96.5759 103.941 91.9692 98.67 88.4062C93.945 85.2212 89.4734 82.0122 84.9024 78.6172C83.8734 77.8542 82.8819 77.0366 81.8809 76.2246C79.3749 74.1876 76.5263 71.8766 73.1172 70.1406C69.5543 68.3276 66.2624 68.2082 63.8614 68.1172C63.1054 68.0822 61.9909 68.0414 61.5919 67.7754L60.9219 66.873C58.0729 62.932 55.8372 60.053 52.8692 58.793C51.7072 58.3012 50.5563 58.0261 49.4376 57.9726ZM187.893 65.1914C185.679 65.3191 183.79 66.0354 184.42 67.5019C186.667 72.7239 195.939 69.9648 193.279 66.3808C192.635 65.5163 190.106 65.0636 187.893 65.1914ZM120.121 65.6699C119.644 65.6833 119.151 65.7782 118.645 65.9707C116.328 66.8527 113.044 73.6592 114.311 76.0742C115.781 78.8742 121.012 76.8968 117.729 80.2988C115.426 82.6788 111.16 82.8947 115.815 87.0527C119.336 90.1957 124.52 89.4935 128.734 89.1855C131.737 88.9685 139.634 89.7617 141.272 86.1777C142.217 84.1127 138.72 82.0362 137.908 80.5312C136.529 77.9902 137.258 74.6831 135.816 72.2051C135.34 71.3861 134.942 69.8024 133.766 69.6484C132.583 69.4944 131.895 71.1943 131.209 71.1523C130.124 71.0823 130.676 71.3751 128.94 70.6191C126.147 69.4064 123.463 65.5763 120.121 65.6699ZM156.201 66.2031C154.686 66.3222 153.254 67.2974 152.291 69.6074C151.661 68.4734 150.453 67.741 148.381 67.748C146.176 67.755 142.112 72.052 141.258 73.9141C140.222 76.168 144.907 86.7899 147.014 84.8789C148.344 83.6749 150.552 80.2368 151.84 76.7578C152.26 78.5778 153.091 80.1833 154.533 80.7363C157.214 81.7583 155.716 80.3057 156.584 79.1367C158.033 77.1907 157.531 76.4509 160.604 75.2539C165.922 73.1906 160.745 65.8458 156.201 66.2031ZM203.547 99.5898C202.857 99.6787 202.263 100.199 201.934 101.34C200.863 105.071 204.107 110.878 207.061 105.523C208.478 102.956 205.618 99.3231 203.547 99.5898ZM199.951 124.869C194.456 124.092 193.815 130.892 194.879 134.658C196.293 139.677 198.107 141.161 201.852 137.885C203.588 136.366 203.86 135.57 205.981 134.576C206.835 134.177 210.094 134.084 210.178 132.635C210.255 131.207 201.652 125.114 199.951 124.869ZM330.682 184C328.265 183.99 329.14 187.533 329.164 189.934C329.206 194.036 329.219 198.136 329.191 202.238C329.156 207.88 329 212 336 212C337.554 212 337.755 211.586 340.156 210.291C343.362 208.562 346.467 206.839 348.455 203.605C349.61 201.722 351.529 196.474 347.84 195.648C344.865 194.983 340.104 193.868 337.668 191.957C335.323 190.116 335.041 185.24 331.94 184.232C331.448 184.072 331.027 184.001 330.682 184Z" fill="#9FBFAB"/>
</g>
<defs>
<clipPath id="clip0_1_12986">
<rect width="350" height="350" fill="white" transform="translate(0 -26)"/>
</clipPath>
</defs>
</svg>
